<!DOCTYPE svg PUBLIC "-//W3C//DTD SVG 20010904//EN" "http://www.w3.org/TR/2001/REC-SVG-20010904/DTD/svg10.dtd">
<svg version="1.0" xmlns="http://www.w3.org/2000/svg" width="289px" height="289px" viewBox="0 0 2890 2890" preserveAspectRatio="xMidYMid meet"><g fill="#008cba" stroke="none">
 <path d="M152 2865 c0 -16 2 -22 5 -12 2 9 2 23 0 30 -3 6 -5 -1 -5 -18z"/>
 <path d="M252 2865 c0 -16 2 -22 5 -12 2 9 2 23 0 30 -3 6 -5 -1 -5 -18z"/>
 <path d="M462 2865 c0 -16 2 -22 5 -12 2 9 2 23 0 30 -3 6 -5 -1 -5 -18z"/>
 <path d="M562 2865 c0 -16 2 -22 5 -12 2 9 2 23 0 30 -3 6 -5 -1 -5 -18z"/>
 <path d="M772 2865 c0 -16 2 -22 5 -12 2 9 2 23 0 30 -3 6 -5 -1 -5 -18z"/>
 <path d="M872 2865 c0 -16 2 -22 5 -12 2 9 2 23 0 30 -3 6 -5 -1 -5 -18z"/>
 <path d="M1032 2865 c0 -16 2 -22 5 -12 2 9 2 23 0 30 -3 6 -5 -1 -5 -18z"/>
 <path d="M1082 2865 c0 -16 2 -22 5 -12 2 9 2 23 0 30 -3 6 -5 -1 -5 -18z"/>
 <path d="M1392 2865 c0 -16 2 -22 5 -12 2 9 2 23 0 30 -3 6 -5 -1 -5 -18z"/>
 <path d="M1492 2865 c0 -16 2 -22 5 -12 2 9 2 23 0 30 -3 6 -5 -1 -5 -18z"/>
 <path d="M1802 2865 c0 -16 2 -22 5 -12 2 9 2 23 0 30 -3 6 -5 -1 -5 -18z"/>
 <path d="M1852 2865 c0 -16 2 -22 5 -12 2 9 2 23 0 30 -3 6 -5 -1 -5 -18z"/>
 <path d="M2012 2865 c0 -16 2 -22 5 -12 2 9 2 23 0 30 -3 6 -5 -1 -5 -18z"/>
 <path d="M2112 2865 c0 -16 2 -22 5 -12 2 9 2 23 0 30 -3 6 -5 -1 -5 -18z"/>
 <path d="M2322 2865 c0 -16 2 -22 5 -12 2 9 2 23 0 30 -3 6 -5 -1 -5 -18z"/>
 <path d="M2422 2865 c0 -16 2 -22 5 -12 2 9 2 23 0 30 -3 6 -5 -1 -5 -18z"/>
 <path d="M2632 2865 c0 -16 2 -22 5 -12 2 9 2 23 0 30 -3 6 -5 -1 -5 -18z"/>
 <path d="M2732 2865 c0 -16 2 -22 5 -12 2 9 2 23 0 30 -3 6 -5 -1 -5 -18z"/>
 <path d="M1030 2360 l0 -400 415 0 415 0 0 400 0 400 -415 0 -415 0 0 -400z m800 0 l0 -380 -385 0 -385 0 0 380 0 380 385 0 385 0 0 -380z"/>
 <path d="M1940 2360 l0 -400 410 0 410 0 0 400 0 400 -410 0 -410 0 0 -400z m800 0 l0 -380 -390 0 -390 0 0 380 0 380 390 0 390 0 0 -380z"/>
 <path d="M2296 2408 c3 -5 10 -6 15 -3 13 9 11 12 -6 12 -8 0 -12 -4 -9 -9z"/>
 <path d="M2316 2391 c-8 -13 18 -31 31 -23 9 6 6 11 -7 20 -10 6 -21 8 -24 3z m19 -11 c3 -5 4 -10 1 -10 -3 0 -8 5 -11 10 -3 6 -4 10 -1 10 3 0 8 -4 11 -10z"/>
 <path d="M2354 2338 c-4 -7 -3 -8 4 -4 12 7 16 16 8 16 -3 0 -8 -5 -12 -12z"/>
 <path d="M2306 2321 c-12 -14 -14 -19 -4 -17 19 2 38 16 38 27 0 15 -16 10 -34 -10z m24 5 c0 -3 -5 -8 -12 -12 -7 -4 -8 -3 -4 4 7 12 16 16 16 8z"/>
 <path d="M2374 2308 c-4 -7 -3 -8 4 -4 7 4 12 9 12 12 0 8 -9 4 -16 -8z"/>
 <path d="M13 2733 c9 -2 23 -2 30 0 6 3 -1 5 -18 5 -17 0 -22 -2 -12 -5z"/>
 <path d="M2853 2733 c9 -2 23 -2 30 0 6 3 -1 5 -18 5 -16 0 -22 -2 -12 -5z"/>
 <path d="M13 2633 c9 -2 23 -2 30 0 6 3 -1 5 -18 5 -17 0 -22 -2 -12 -5z"/>
 <path d="M2853 2633 c9 -2 23 -2 30 0 6 3 -1 5 -18 5 -16 0 -22 -2 -12 -5z"/>
 <path d="M7 2423 c7 -2 19 -2 26 0 6 3 1 5 -13 5 -14 0 -19 -2 -13 -5z"/>
 <path d="M2858 2423 c6 -2 18 -2 25 0 6 3 1 5 -13 5 -14 0 -19 -2 -12 -5z"/>
 <path d="M13 2323 c9 -2 23 -2 30 0 6 3 -1 5 -18 5 -17 0 -22 -2 -12 -5z"/>
 <path d="M2853 2323 c9 -2 23 -2 30 0 6 3 -1 5 -18 5 -16 0 -22 -2 -12 -5z"/>
 <path d="M130 1440 l0 -400 410 0 410 0 0 400 0 400 -410 0 -410 0 0 -400z m800 0 l0 -380 -390 0 -390 0 0 380 0 380 390 0 390 0 0 -380z"/>
 <path d="M1940 1440 l0 -400 410 0 410 0 0 400 0 400 -410 0 -410 0 0 -400z m800 0 l0 -380 -390 0 -390 0 0 380 0 380 390 0 390 0 0 -380z"/>
 <path d="M7 1553 c7 -2 19 -2 26 0 6 3 1 5 -13 5 -14 0 -19 -2 -13 -5z"/>
 <path d="M2858 1553 c6 -2 18 -2 25 0 6 3 1 5 -13 5 -14 0 -19 -2 -12 -5z"/>
 <path d="M13 1343 c9 -2 23 -2 30 0 6 3 -1 5 -18 5 -17 0 -22 -2 -12 -5z"/>
 <path d="M2853 1343 c9 -2 23 -2 30 0 6 3 -1 5 -18 5 -16 0 -22 -2 -12 -5z"/>
 <path d="M7 1243 c7 -2 19 -2 26 0 6 3 1 5 -13 5 -14 0 -19 -2 -13 -5z"/>
 <path d="M2858 1243 c6 -2 18 -2 25 0 6 3 1 5 -13 5 -14 0 -19 -2 -12 -5z"/>
 <path d="M13 1033 c9 -2 23 -2 30 0 6 3 -1 5 -18 5 -17 0 -22 -2 -12 -5z"/>
 <path d="M2853 1033 c9 -2 23 -2 30 0 6 3 -1 5 -18 5 -16 0 -22 -2 -12 -5z"/>
 <path d="M13 933 c9 -2 23 -2 30 0 6 3 -1 5 -18 5 -17 0 -22 -2 -12 -5z"/>
 <path d="M2853 933 c9 -2 23 -2 30 0 6 3 -1 5 -18 5 -16 0 -22 -2 -12 -5z"/>
 <path d="M130 520 l0 -400 410 0 410 0 0 400 0 400 -410 0 -410 0 0 -400z m800 0 l0 -380 -390 0 -390 0 0 380 0 380 390 0 390 0 0 -380z"/>
 <path d="M1030 520 l0 -400 415 0 415 0 0 400 0 400 -415 0 -415 0 0 -400z m800 0 l0 -380 -385 0 -385 0 0 380 0 380 385 0 385 0 0 -380z"/>
 <path d="M1475 570 c3 -5 8 -10 11 -10 3 0 2 5 -1 10 -3 6 -8 10 -11 10 -3 0 -2 -4 1 -10z"/>
 <path d="M1411 544 c6 -8 18 -14 25 -14 8 0 14 -5 14 -12 0 -6 6 -3 14 7 16 23 10 41 -8 26 -7 -6 -16 -8 -20 -4 -3 4 -13 8 -22 9 -12 2 -13 -1 -3 -12z m59 2 c0 -3 -5 -8 -12 -12 -7 -4 -8 -3 -4 4 7 12 16 16 16 8z"/>
 <path d="M1425 511 c-3 -5 -2 -12 3 -15 5 -3 9 1 9 9 0 17 -3 19 -12 6z"/>
 <path d="M1450 491 c0 -11 19 -25 38 -27 10 -2 8 3 -4 17 -18 20 -34 25 -34 10z m25 -11 c3 -5 4 -10 1 -10 -3 0 -8 5 -11 10 -3 6 -4 10 -1 10 3 0 8 -4 11 -10z"/>
 <path d="M1401 476 c-10 -11 -9 -14 1 -12 14 2 23 15 15 22 -2 2 -10 -2 -16 -10z"/>
 <path d="M7 723 c7 -2 19 -2 26 0 6 3 1 5 -13 5 -14 0 -19 -2 -13 -5z"/>
 <path d="M2858 723 c6 -2 18 -2 25 0 6 3 1 5 -13 5 -14 0 -19 -2 -12 -5z"/>
 <path d="M13 563 c9 -2 23 -2 30 0 6 3 -1 5 -18 5 -17 0 -22 -2 -12 -5z"/>
 <path d="M2853 563 c9 -2 23 -2 30 0 6 3 -1 5 -18 5 -16 0 -22 -2 -12 -5z"/>
 <path d="M7 463 c7 -2 19 -2 26 0 6 3 1 5 -13 5 -14 0 -19 -2 -13 -5z"/>
 <path d="M2858 463 c6 -2 18 -2 25 0 6 3 1 5 -13 5 -14 0 -19 -2 -12 -5z"/>
 <path d="M7 413 c7 -2 19 -2 26 0 6 3 1 5 -13 5 -14 0 -19 -2 -13 -5z"/>
 <path d="M2858 413 c6 -2 18 -2 25 0 6 3 1 5 -13 5 -14 0 -19 -2 -12 -5z"/>
 <path d="M13 253 c9 -2 23 -2 30 0 6 3 -1 5 -18 5 -17 0 -22 -2 -12 -5z"/>
 <path d="M2853 253 c9 -2 23 -2 30 0 6 3 -1 5 -18 5 -16 0 -22 -2 -12 -5z"/>
 <path d="M13 153 c9 -2 23 -2 30 0 6 3 -1 5 -18 5 -17 0 -22 -2 -12 -5z"/>
 <path d="M2853 153 c9 -2 23 -2 30 0 6 3 -1 5 -18 5 -16 0 -22 -2 -12 -5z"/>
 <path d="M152 25 c0 -17 2 -22 5 -12 2 9 2 23 0 30 -3 6 -5 -1 -5 -18z"/>
 <path d="M252 25 c0 -17 2 -22 5 -12 2 9 2 23 0 30 -3 6 -5 -1 -5 -18z"/>
 <path d="M462 25 c0 -17 2 -22 5 -12 2 9 2 23 0 30 -3 6 -5 -1 -5 -18z"/>
 <path d="M562 25 c0 -17 2 -22 5 -12 2 9 2 23 0 30 -3 6 -5 -1 -5 -18z"/>
 <path d="M772 25 c0 -17 2 -22 5 -12 2 9 2 23 0 30 -3 6 -5 -1 -5 -18z"/>
 <path d="M872 25 c0 -17 2 -22 5 -12 2 9 2 23 0 30 -3 6 -5 -1 -5 -18z"/>
 <path d="M1032 25 c0 -17 2 -22 5 -12 2 9 2 23 0 30 -3 6 -5 -1 -5 -18z"/>
 <path d="M1082 25 c0 -17 2 -22 5 -12 2 9 2 23 0 30 -3 6 -5 -1 -5 -18z"/>
 <path d="M1392 25 c0 -17 2 -22 5 -12 2 9 2 23 0 30 -3 6 -5 -1 -5 -18z"/>
 <path d="M1492 25 c0 -17 2 -22 5 -12 2 9 2 23 0 30 -3 6 -5 -1 -5 -18z"/>
 <path d="M1802 25 c0 -17 2 -22 5 -12 2 9 2 23 0 30 -3 6 -5 -1 -5 -18z"/>
 <path d="M1852 25 c0 -17 2 -22 5 -12 2 9 2 23 0 30 -3 6 -5 -1 -5 -18z"/>
 <path d="M2012 25 c0 -17 2 -22 5 -12 2 9 2 23 0 30 -3 6 -5 -1 -5 -18z"/>
 <path d="M2112 25 c0 -17 2 -22 5 -12 2 9 2 23 0 30 -3 6 -5 -1 -5 -18z"/>
 <path d="M2322 25 c0 -17 2 -22 5 -12 2 9 2 23 0 30 -3 6 -5 -1 -5 -18z"/>
 <path d="M2422 25 c0 -17 2 -22 5 -12 2 9 2 23 0 30 -3 6 -5 -1 -5 -18z"/>
 <path d="M2632 25 c0 -17 2 -22 5 -12 2 9 2 23 0 30 -3 6 -5 -1 -5 -18z"/>
 <path d="M2732 25 c0 -17 2 -22 5 -12 2 9 2 23 0 30 -3 6 -5 -1 -5 -18z"/>
 </g>

<g fill="#010101" stroke="none">
 <path d="M0 2840 c0 -47 2 -50 25 -50 20 0 25 5 25 25 0 20 5 25 25 25 20 0 25 5 25 25 0 23 -3 25 -50 25 l-50 0 0 -50z"/>
 <path d="M160 2865 c0 -23 4 -25 45 -25 41 0 45 2 45 25 0 23 -4 25 -45 25 -41 0 -45 -2 -45 -25z"/>
 <path d="M310 2865 c0 -23 3 -25 50 -25 47 0 50 2 50 25 0 23 -3 25 -50 25 -47 0 -50 -2 -50 -25z"/>
 <path d="M470 2865 c0 -23 4 -25 45 -25 41 0 45 2 45 25 0 23 -4 25 -45 25 -41 0 -45 -2 -45 -25z"/>
 <path d="M620 2865 c0 -23 3 -25 50 -25 47 0 50 2 50 25 0 23 -3 25 -50 25 -47 0 -50 -2 -50 -25z"/>
 <path d="M780 2865 c0 -23 4 -25 45 -25 41 0 45 2 45 25 0 23 -4 25 -45 25 -41 0 -45 -2 -45 -25z"/>
 <path d="M930 2865 c0 -23 3 -25 50 -25 47 0 50 2 50 25 0 23 -3 25 -50 25 -47 0 -50 -2 -50 -25z"/>
 <path d="M1090 2865 c0 -23 3 -25 50 -25 47 0 50 2 50 25 0 23 -3 25 -50 25 -47 0 -50 -2 -50 -25z"/>
 <path d="M1240 2865 c0 -23 3 -25 50 -25 47 0 50 2 50 25 0 23 -3 25 -50 25 -47 0 -50 -2 -50 -25z"/>
 <path d="M1400 2865 c0 -23 4 -25 45 -25 41 0 45 2 45 25 0 23 -4 25 -45 25 -41 0 -45 -2 -45 -25z"/>
 <path d="M1550 2865 c0 -23 3 -25 50 -25 47 0 50 2 50 25 0 23 -3 25 -50 25 -47 0 -50 -2 -50 -25z"/>
 <path d="M1700 2865 c0 -23 3 -25 50 -25 47 0 50 2 50 25 0 23 -3 25 -50 25 -47 0 -50 -2 -50 -25z"/>
 <path d="M1860 2865 c0 -23 3 -25 50 -25 47 0 50 2 50 25 0 23 -3 25 -50 25 -47 0 -50 -2 -50 -25z"/>
 <path d="M2020 2865 c0 -23 4 -25 45 -25 41 0 45 2 45 25 0 23 -4 25 -45 25 -41 0 -45 -2 -45 -25z"/>
 <path d="M2170 2865 c0 -23 3 -25 50 -25 47 0 50 2 50 25 0 23 -3 25 -50 25 -47 0 -50 -2 -50 -25z"/>
 <path d="M2330 2865 c0 -23 4 -25 45 -25 41 0 45 2 45 25 0 23 -4 25 -45 25 -41 0 -45 -2 -45 -25z"/>
 <path d="M2480 2865 c0 -23 3 -25 50 -25 47 0 50 2 50 25 0 23 -3 25 -50 25 -47 0 -50 -2 -50 -25z"/>
 <path d="M2640 2865 c0 -23 4 -25 45 -25 41 0 45 2 45 25 0 23 -4 25 -45 25 -41 0 -45 -2 -45 -25z"/>
 <path d="M2790 2865 c0 -20 5 -25 25 -25 20 0 25 -5 25 -25 0 -20 5 -25 25 -25 23 0 25 3 25 50 l0 50 -50 0 c-47 0 -50 -2 -50 -25z"/>
 <path d="M0 2685 c0 -41 2 -45 25 -45 23 0 25 4 25 45 0 41 -2 45 -25 45 -23 0 -25 -4 -25 -45z"/>
 <path d="M2840 2685 c0 -41 2 -45 25 -45 23 0 25 4 25 45 0 41 -2 45 -25 45 -23 0 -25 -4 -25 -45z"/>
 <path d="M0 2530 c0 -47 2 -50 25 -50 23 0 25 3 25 50 0 47 -2 50 -25 50 -23 0 -25 -3 -25 -50z"/>
 <path d="M2840 2530 c0 -47 2 -50 25 -50 23 0 25 3 25 50 0 47 -2 50 -25 50 -23 0 -25 -3 -25 -50z"/>
 <path d="M23 2423 c-20 -4 -23 -11 -23 -49 0 -40 2 -44 25 -44 23 0 25 3 25 50 0 28 -1 49 -2 49 -2 -1 -13 -4 -25 -6z"/>
 <path d="M2840 2379 c0 -46 2 -49 25 -49 23 0 25 4 25 44 0 39 -3 44 -25 48 -24 5 -25 3 -25 -43z"/>
 <path d="M2306 2410 c4 -8 14 -23 22 -32 7 -9 11 -22 7 -27 -3 -6 0 -11 7 -11 7 0 19 -9 26 -20 7 -11 17 -20 22 -20 6 0 2 10 -10 22 -25 27 -25 33 1 69 11 16 15 29 9 29 -6 0 -16 -11 -22 -25 -14 -32 -21 -31 -48 3 -12 15 -18 20 -14 12z"/>
 <path d="M2309 2313 c-13 -16 -12 -17 4 -4 9 7 17 15 17 17 0 8 -8 3 -21 -13z"/>
 <path d="M0 2220 c0 -47 2 -50 25 -50 23 0 25 3 25 50 0 47 -2 50 -25 50 -23 0 -25 -3 -25 -50z"/>
 <path d="M2840 2220 c0 -47 2 -50 25 -50 23 0 25 3 25 50 0 47 -2 50 -25 50 -23 0 -25 -3 -25 -50z"/>
 <path d="M0 2070 c0 -47 2 -50 25 -50 23 0 25 3 25 50 0 47 -2 50 -25 50 -23 0 -25 -3 -25 -50z"/>
 <path d="M2840 2070 c0 -47 2 -50 25 -50 23 0 25 3 25 50 0 47 -2 50 -25 50 -23 0 -25 -3 -25 -50z"/>
 <path d="M0 1910 c0 -47 2 -50 25 -50 23 0 25 3 25 50 0 47 -2 50 -25 50 -23 0 -25 -3 -25 -50z"/>
 <path d="M2840 1910 c0 -47 2 -50 25 -50 23 0 25 3 25 50 0 47 -2 50 -25 50 -23 0 -25 -3 -25 -50z"/>
 <path d="M0 1760 c0 -47 2 -50 25 -50 23 0 25 3 25 50 0 47 -2 50 -25 50 -23 0 -25 -3 -25 -50z"/>
 <path d="M2840 1760 c0 -47 2 -50 25 -50 23 0 25 3 25 50 0 47 -2 50 -25 50 -23 0 -25 -3 -25 -50z"/>
 <path d="M0 1606 c0 -39 3 -44 25 -48 24 -5 25 -3 25 43 0 46 -2 49 -25 49 -23 0 -25 -4 -25 -44z"/>
 <path d="M2840 1601 c0 -46 1 -48 25 -43 22 4 25 9 25 48 0 40 -2 44 -25 44 -23 0 -25 -3 -25 -49z"/>
 <path d="M0 1450 c0 -47 2 -50 25 -50 23 0 25 3 25 50 0 47 -2 50 -25 50 -23 0 -25 -3 -25 -50z"/>
 <path d="M2840 1450 c0 -47 2 -50 25 -50 23 0 25 3 25 50 0 47 -2 50 -25 50 -23 0 -25 -3 -25 -50z"/>
 <path d="M0 1296 c0 -39 3 -44 25 -48 24 -5 25 -3 25 43 0 46 -2 49 -25 49 -23 0 -25 -4 -25 -44z"/>
 <path d="M2840 1291 c0 -46 1 -48 25 -43 22 4 25 9 25 48 0 40 -2 44 -25 44 -23 0 -25 -3 -25 -49z"/>
 <path d="M0 1140 c0 -47 2 -50 25 -50 23 0 25 3 25 50 0 47 -2 50 -25 50 -23 0 -25 -3 -25 -50z"/>
 <path d="M2840 1140 c0 -47 2 -50 25 -50 23 0 25 3 25 50 0 47 -2 50 -25 50 -23 0 -25 -3 -25 -50z"/>
 <path d="M0 985 c0 -41 2 -45 25 -45 23 0 25 4 25 45 0 41 -2 45 -25 45 -23 0 -25 -4 -25 -45z"/>
 <path d="M2840 985 c0 -41 2 -45 25 -45 23 0 25 4 25 45 0 41 -2 45 -25 45 -23 0 -25 -4 -25 -45z"/>
 <path d="M0 820 c0 -47 2 -50 25 -50 23 0 25 3 25 50 0 47 -2 50 -25 50 -23 0 -25 -3 -25 -50z"/>
 <path d="M2840 820 c0 -47 2 -50 25 -50 23 0 25 3 25 50 0 47 -2 50 -25 50 -23 0 -25 -3 -25 -50z"/>
 <path d="M23 723 c-20 -4 -23 -11 -23 -54 0 -46 2 -49 25 -49 24 0 25 3 25 55 0 30 -1 54 -2 54 -2 -1 -13 -4 -25 -6z"/>
 <path d="M2840 674 c0 -51 1 -54 25 -54 23 0 25 3 25 49 0 44 -2 49 -25 53 -24 5 -25 3 -25 -48z"/>
 <path d="M1405 560 c10 -11 20 -20 22 -20 2 0 -1 9 -7 20 -6 11 -16 20 -22 20 -6 0 -3 -9 7 -20z"/>
 <path d="M1459 550 c-15 -17 -25 -30 -22 -30 2 0 -5 -15 -17 -32 -19 -29 -19 -30 -2 -10 11 12 25 22 31 22 6 0 8 6 6 13 -3 6 6 24 20 40 14 15 22 27 18 27 -4 -1 -20 -14 -34 -30z"/>
 <path d="M0 516 c0 -39 3 -44 25 -48 24 -5 25 -3 25 43 0 46 -2 49 -25 49 -23 0 -25 -4 -25 -44z"/>
 <path d="M2840 511 c0 -46 1 -48 25 -43 22 4 25 9 25 48 0 40 -2 44 -25 44 -23 0 -25 -3 -25 -49z"/>
 <path d="M1460 486 c0 -2 8 -10 18 -17 15 -13 16 -12 3 4 -13 16 -21 21 -21 13z"/>
 <path d="M23 413 c-20 -4 -23 -11 -23 -54 0 -46 2 -49 25 -49 24 0 25 3 25 55 0 30 -1 54 -2 54 -2 -1 -13 -4 -25 -6z"/>
 <path d="M2840 364 c0 -51 1 -54 25 -54 23 0 25 3 25 49 0 44 -2 49 -25 53 -24 5 -25 3 -25 -48z"/>
 <path d="M0 205 c0 -41 2 -45 25 -45 23 0 25 4 25 45 0 41 -2 45 -25 45 -23 0 -25 -4 -25 -45z"/>
 <path d="M2840 205 c0 -41 2 -45 25 -45 23 0 25 4 25 45 0 41 -2 45 -25 45 -23 0 -25 -4 -25 -45z"/>
 <path d="M0 55 l0 -55 50 0 c47 0 50 2 50 25 0 20 -5 25 -25 25 -21 0 -25 5 -25 30 0 25 -4 30 -25 30 -24 0 -25 -3 -25 -55z"/>
 <path d="M2840 80 c0 -25 -4 -30 -25 -30 -20 0 -25 -5 -25 -25 0 -23 3 -25 50 -25 l50 0 0 55 c0 52 -1 55 -25 55 -21 0 -25 -5 -25 -30z"/>
 <path d="M160 25 c0 -23 4 -25 45 -25 41 0 45 2 45 25 0 23 -4 25 -45 25 -41 0 -45 -2 -45 -25z"/>
 <path d="M310 25 c0 -23 3 -25 50 -25 47 0 50 2 50 25 0 23 -3 25 -50 25 -47 0 -50 -2 -50 -25z"/>
 <path d="M470 25 c0 -23 4 -25 45 -25 41 0 45 2 45 25 0 23 -4 25 -45 25 -41 0 -45 -2 -45 -25z"/>
 <path d="M620 25 c0 -23 3 -25 50 -25 47 0 50 2 50 25 0 23 -3 25 -50 25 -47 0 -50 -2 -50 -25z"/>
 <path d="M780 25 c0 -23 4 -25 45 -25 41 0 45 2 45 25 0 23 -4 25 -45 25 -41 0 -45 -2 -45 -25z"/>
 <path d="M930 25 c0 -23 3 -25 50 -25 47 0 50 2 50 25 0 23 -3 25 -50 25 -47 0 -50 -2 -50 -25z"/>
 <path d="M1090 25 c0 -23 3 -25 50 -25 47 0 50 2 50 25 0 23 -3 25 -50 25 -47 0 -50 -2 -50 -25z"/>
 <path d="M1240 25 c0 -23 3 -25 50 -25 47 0 50 2 50 25 0 23 -3 25 -50 25 -47 0 -50 -2 -50 -25z"/>
 <path d="M1400 25 c0 -23 4 -25 45 -25 41 0 45 2 45 25 0 23 -4 25 -45 25 -41 0 -45 -2 -45 -25z"/>
 <path d="M1550 25 c0 -23 3 -25 50 -25 47 0 50 2 50 25 0 23 -3 25 -50 25 -47 0 -50 -2 -50 -25z"/>
 <path d="M1700 25 c0 -23 3 -25 50 -25 47 0 50 2 50 25 0 23 -3 25 -50 25 -47 0 -50 -2 -50 -25z"/>
 <path d="M1860 25 c0 -23 3 -25 50 -25 47 0 50 2 50 25 0 23 -3 25 -50 25 -47 0 -50 -2 -50 -25z"/>
 <path d="M2020 25 c0 -23 4 -25 45 -25 41 0 45 2 45 25 0 23 -4 25 -45 25 -41 0 -45 -2 -45 -25z"/>
 <path d="M2170 25 c0 -23 3 -25 50 -25 47 0 50 2 50 25 0 23 -3 25 -50 25 -47 0 -50 -2 -50 -25z"/>
 <path d="M2330 25 c0 -23 4 -25 45 -25 41 0 45 2 45 25 0 23 -4 25 -45 25 -41 0 -45 -2 -45 -25z"/>
 <path d="M2480 25 c0 -23 3 -25 50 -25 47 0 50 2 50 25 0 23 -3 25 -50 25 -47 0 -50 -2 -50 -25z"/>
 <path d="M2640 25 c0 -23 4 -25 45 -25 41 0 45 2 45 25 0 23 -4 25 -45 25 -41 0 -45 -2 -45 -25z"/>
 </g>

<g fill="#f44336" stroke="none">
 <path d="M130 2360 l0 -400 410 0 410 0 0 400 0 400 -410 0 -410 0 0 -400z m460 28 c13 -25 13 -31 0 -55 -30 -54 -103 -35 -103 27 0 62 73 81 103 28z"/>
 <path d="M508 2385 c-15 -33 3 -75 32 -75 11 0 27 11 36 25 15 23 15 27 0 50 -9 14 -25 25 -36 25 -12 0 -25 -10 -32 -25z"/>
 <path d="M1030 1440 l0 -400 415 0 415 0 0 400 0 400 -415 0 -415 0 0 -400z m454 44 c36 -35 10 -104 -39 -104 -32 0 -55 25 -55 60 0 35 23 60 55 60 13 0 31 -7 39 -16z"/>
 <path d="M1416 1474 c-9 -8 -16 -24 -16 -34 0 -22 25 -50 45 -50 20 0 45 28 45 50 0 22 -25 50 -45 50 -7 0 -21 -7 -29 -16z"/>
 <path d="M1940 520 l0 -400 410 0 410 0 0 400 0 400 -410 0 -410 0 0 -400z m445 46 c11 -8 18 -26 18 -46 0 -36 -23 -60 -59 -60 -24 0 -54 34 -54 60 0 48 56 75 95 46z"/>
 <path d="M2314 545 c-15 -23 -15 -27 0 -50 9 -14 25 -25 36 -25 29 0 47 42 32 75 -7 15 -20 25 -32 25 -11 0 -27 -11 -36 -25z"/>
 </g>

<g fill="#ffffff" stroke="none">
 <path d="M100 2865 c0 -20 -5 -25 -25 -25 -20 0 -25 -5 -25 -25 0 -20 -5 -25 -25 -25 -20 0 -25 -5 -25 -25 0 -20 5 -25 25 -25 24 0 25 -3 25 -55 0 -52 -1 -55 -25 -55 -20 0 -25 -5 -25 -25 0 -20 5 -25 25 -25 23 0 25 -3 25 -50 0 -47 -2 -50 -25 -50 -20 0 -25 -5 -25 -25 0 -20 5 -25 25 -25 24 0 25 -3 25 -55 0 -52 -1 -55 -25 -55 -20 0 -25 -5 -25 -25 0 -20 5 -25 25 -25 23 0 25 -3 25 -50 0 -47 -2 -50 -25 -50 -20 0 -25 -5 -25 -25 0 -20 5 -25 25 -25 23 0 25 -3 25 -50 0 -47 -2 -50 -25 -50 -21 0 -25 -5 -25 -30 0 -25 4 -30 25 -30 23 0 25 -3 25 -50 0 -47 -2 -50 -25 -50 -20 0 -25 -5 -25 -25 0 -20 5 -25 25 -25 23 0 25 -3 25 -50 0 -47 -2 -50 -25 -50 -21 0 -25 -5 -25 -31 0 -28 3 -31 25 -27 24 5 25 3 25 -48 0 -51 -1 -54 -25 -54 -20 0 -25 -5 -25 -25 0 -20 5 -25 25 -25 23 0 25 -3 25 -50 0 -47 -2 -50 -25 -50 -20 0 -25 -5 -25 -25 0 -20 5 -25 25 -25 24 0 25 -3 25 -55 0 -52 -1 -55 -25 -55 -20 0 -25 -5 -25 -25 0 -20 5 -25 25 -25 23 0 25 -3 25 -50 0 -47 -2 -50 -25 -50 -20 0 -25 -5 -25 -25 0 -20 5 -25 25 -25 24 0 25 -3 25 -55 0 -52 -1 -55 -25 -55 -21 0 -25 -5 -25 -30 0 -25 4 -30 25 -30 23 0 25 -3 25 -50 0 -47 -2 -50 -25 -50 -18 0 -25 -5 -25 -20 0 -15 7 -20 25 -20 24 0 25 -3 25 -55 0 -52 -1 -55 -25 -55 -20 0 -25 -5 -25 -25 0 -20 5 -25 25 -25 24 0 25 -3 25 -55 0 -52 -1 -55 -25 -55 -18 0 -25 -5 -25 -20 0 -15 7 -20 25 -20 24 0 25 -3 25 -55 0 -52 -1 -55 -25 -55 -20 0 -25 -5 -25 -25 0 -20 5 -25 25 -25 24 0 25 -3 25 -55 0 -52 -1 -55 -25 -55 -18 0 -25 -5 -25 -20 0 -15 7 -20 25 -20 21 0 25 -5 25 -30 0 -25 4 -30 25 -30 20 0 25 -5 25 -25 0 -20 5 -25 25 -25 20 0 25 5 25 25 0 24 3 25 55 25 52 0 55 -1 55 -25 0 -20 5 -25 25 -25 20 0 25 5 25 25 0 23 3 25 50 25 47 0 50 -2 50 -25 0 -20 5 -25 25 -25 20 0 25 5 25 25 0 24 3 25 55 25 52 0 55 -1 55 -25 0 -20 5 -25 25 -25 20 0 25 5 25 25 0 23 3 25 50 25 47 0 50 -2 50 -25 0 -20 5 -25 25 -25 20 0 25 5 25 25 0 24 3 25 55 25 52 0 55 -1 55 -25 0 -20 5 -25 25 -25 20 0 25 5 25 25 0 24 3 25 55 25 52 0 55 -1 55 -25 0 -18 5 -25 20 -25 15 0 20 7 20 25 0 24 3 25 55 25 52 0 55 -1 55 -25 0 -20 5 -25 25 -25 20 0 25 5 25 25 0 23 3 25 50 25 47 0 50 -2 50 -25 0 -20 5 -25 25 -25 20 0 25 5 25 25 0 24 3 25 55 25 52 0 55 -1 55 -25 0 -20 5 -25 25 -25 20 0 25 5 25 25 0 23 3 25 50 25 47 0 50 -2 50 -25 0 -20 5 -25 25 -25 20 0 25 5 25 25 0 24 3 25 55 25 52 0 55 -1 55 -25 0 -18 5 -25 20 -25 15 0 20 7 20 25 0 24 3 25 55 25 52 0 55 -1 55 -25 0 -20 5 -25 25 -25 20 0 25 5 25 25 0 24 3 25 55 25 52 0 55 -1 55 -25 0 -20 5 -25 25 -25 20 0 25 5 25 25 0 23 3 25 50 25 47 0 50 -2 50 -25 0 -20 5 -25 25 -25 20 0 25 5 25 25 0 24 3 25 55 25 52 0 55 -1 55 -25 0 -20 5 -25 25 -25 20 0 25 5 25 25 0 23 3 25 50 25 47 0 50 -2 50 -25 0 -20 5 -25 25 -25 20 0 25 5 25 25 0 24 3 25 55 25 52 0 55 -1 55 -25 0 -20 5 -25 25 -25 20 0 25 5 25 25 0 20 5 25 25 25 21 0 25 5 25 30 0 25 4 30 25 30 18 0 25 5 25 20 0 15 -7 20 -25 20 -24 0 -25 3 -25 55 0 52 1 55 25 55 20 0 25 5 25 25 0 20 -5 25 -25 25 -24 0 -25 3 -25 55 0 52 1 55 25 55 18 0 25 5 25 20 0 15 -7 20 -25 20 -24 0 -25 3 -25 55 0 52 1 55 25 55 20 0 25 5 25 25 0 20 -5 25 -25 25 -24 0 -25 3 -25 55 0 52 1 55 25 55 18 0 25 5 25 20 0 15 -7 20 -25 20 -23 0 -25 3 -25 50 0 47 2 50 25 50 21 0 25 5 25 30 0 25 -4 30 -25 30 -24 0 -25 3 -25 55 0 52 1 55 25 55 20 0 25 5 25 25 0 20 -5 25 -25 25 -23 0 -25 3 -25 50 0 47 2 50 25 50 20 0 25 5 25 25 0 20 -5 25 -25 25 -24 0 -25 3 -25 55 0 52 1 55 25 55 20 0 25 5 25 25 0 20 -5 25 -25 25 -23 0 -25 3 -25 50 0 47 2 50 25 50 20 0 25 5 25 25 0 20 -5 25 -25 25 -24 0 -25 3 -25 54 0 51 1 53 25 48 22 -4 25 -1 25 27 0 26 -4 31 -25 31 -23 0 -25 3 -25 50 0 47 2 50 25 50 20 0 25 5 25 25 0 20 -5 25 -25 25 -23 0 -25 3 -25 50 0 47 2 50 25 50 21 0 25 5 25 30 0 25 -4 30 -25 30 -23 0 -25 3 -25 50 0 47 2 50 25 50 20 0 25 5 25 25 0 20 -5 25 -25 25 -23 0 -25 3 -25 50 0 47 2 50 25 50 20 0 25 5 25 25 0 20 -5 25 -25 25 -24 0 -25 3 -25 55 0 52 1 55 25 55 20 0 25 5 25 25 0 20 -5 25 -25 25 -23 0 -25 3 -25 50 0 47 2 50 25 50 20 0 25 5 25 25 0 20 -5 25 -25 25 -24 0 -25 3 -25 55 0 52 1 55 25 55 20 0 25 5 25 25 0 20 -5 25 -25 25 -20 0 -25 5 -25 25 0 20 -5 25 -25 25 -20 0 -25 5 -25 25 0 20 -5 25 -25 25 -20 0 -25 -5 -25 -25 0 -24 -3 -25 -55 -25 -52 0 -55 1 -55 25 0 20 -5 25 -25 25 -20 0 -25 -5 -25 -25 0 -23 -3 -25 -50 -25 -47 0 -50 2 -50 25 0 20 -5 25 -25 25 -20 0 -25 -5 -25 -25 0 -24 -3 -25 -55 -25 -52 0 -55 1 -55 25 0 20 -5 25 -25 25 -20 0 -25 -5 -25 -25 0 -23 -3 -25 -50 -25 -47 0 -50 2 -50 25 0 20 -5 25 -25 25 -20 0 -25 -5 -25 -25 0 -24 -3 -25 -55 -25 -52 0 -55 1 -55 25 0 20 -5 25 -25 25 -20 0 -25 -5 -25 -25 0 -24 -3 -25 -55 -25 -52 0 -55 1 -55 25 0 18 -5 25 -20 25 -15 0 -20 -7 -20 -25 0 -24 -3 -25 -55 -25 -52 0 -55 1 -55 25 0 20 -5 25 -25 25 -20 0 -25 -5 -25 -25 0 -23 -3 -25 -50 -25 -47 0 -50 2 -50 25 0 20 -5 25 -25 25 -20 0 -25 -5 -25 -25 0 -24 -3 -25 -55 -25 -52 0 -55 1 -55 25 0 20 -5 25 -25 25 -20 0 -25 -5 -25 -25 0 -23 -3 -25 -50 -25 -47 0 -50 2 -50 25 0 20 -5 25 -25 25 -20 0 -25 -5 -25 -25 0 -24 -3 -25 -55 -25 -52 0 -55 1 -55 25 0 18 -5 25 -20 25 -15 0 -20 -7 -20 -25 0 -24 -3 -25 -55 -25 -52 0 -55 1 -55 25 0 20 -5 25 -25 25 -20 0 -25 -5 -25 -25 0 -24 -3 -25 -55 -25 -52 0 -55 1 -55 25 0 20 -5 25 -25 25 -20 0 -25 -5 -25 -25 0 -23 -3 -25 -50 -25 -47 0 -50 2 -50 25 0 20 -5 25 -25 25 -20 0 -25 -5 -25 -25 0 -24 -3 -25 -55 -25 -52 0 -55 1 -55 25 0 20 -5 25 -25 25 -20 0 -25 -5 -25 -25 0 -23 -3 -25 -50 -25 -47 0 -50 2 -50 25 0 20 -5 25 -25 25 -20 0 -25 -5 -25 -25 0 -24 -3 -25 -55 -25 -52 0 -55 1 -55 25 0 20 -5 25 -25 25 -20 0 -25 -5 -25 -25z m850 -505 l0 -400 -410 0 -410 0 0 400 0 400 410 0 410 0 0 -400z m910 0 l0 -400 -415 0 -415 0 0 400 0 400 415 0 415 0 0 -400z m900 0 l0 -400 -410 0 -410 0 0 400 0 400 410 0 410 0 0 -400z m-1810 -920 l0 -400 -410 0 -410 0 0 400 0 400 410 0 410 0 0 -400z m910 0 l0 -400 -415 0 -415 0 0 400 0 400 415 0 415 0 0 -400z m900 0 l0 -400 -410 0 -410 0 0 400 0 400 410 0 410 0 0 -400z m-1810 -920 l0 -400 -410 0 -410 0 0 400 0 400 410 0 410 0 0 -400z m910 0 l0 -400 -415 0 -415 0 0 400 0 400 415 0 415 0 0 -400z m900 0 l0 -400 -410 0 -410 0 0 400 0 400 410 0 410 0 0 -400z"/>
 <path d="M506 2407 c-12 -9 -19 -26 -19 -47 0 -62 73 -81 103 -27 13 24 13 30 0 55 -18 31 -56 40 -84 19z m70 -22 c15 -23 15 -27 0 -50 -9 -14 -25 -25 -36 -25 -12 0 -25 10 -32 25 -15 33 3 75 32 75 11 0 27 -11 36 -25z"/>
 <path d="M1060 2360 l0 -380 385 0 385 0 0 380 0 380 -385 0 -385 0 0 -380z"/>
 <path d="M1960 2360 l0 -380 390 0 390 0 0 380 0 380 -390 0 -390 0 0 -380z m371 38 l20 -23 15 23 c9 12 21 22 26 22 5 0 -1 -14 -13 -31 l-22 -31 22 -29 c14 -19 17 -29 9 -29 -7 0 -19 10 -26 21 l-14 21 -14 -21 c-8 -11 -23 -21 -32 -21 -13 0 -11 6 10 27 l27 26 -26 34 c-28 37 -13 46 18 11z"/>
 <path d="M150 1440 l0 -380 390 0 390 0 0 380 0 380 -390 0 -390 0 0 -380z"/>
 <path d="M1406 1484 c-36 -35 -10 -104 39 -104 32 0 55 25 55 60 0 35 -23 60 -55 60 -13 0 -31 -7 -39 -16z m68 -10 c9 -8 16 -24 16 -34 0 -22 -25 -50 -45 -50 -20 0 -45 28 -45 50 0 22 25 50 45 50 7 0 21 -7 29 -16z"/>
 <path d="M1960 1440 l0 -380 390 0 390 0 0 380 0 380 -390 0 -390 0 0 -380z"/>
 <path d="M150 520 l0 -380 390 0 390 0 0 380 0 380 -390 0 -390 0 0 -380z"/>
 <path d="M1060 520 l0 -380 385 0 385 0 0 380 0 380 -385 0 -385 0 0 -380z m369 38 l14 -22 17 22 c27 33 45 27 21 -7 -26 -36 -26 -39 1 -68 18 -19 19 -23 5 -23 -9 0 -22 9 -31 21 l-14 21 -11 -21 c-7 -12 -18 -21 -27 -21 -11 0 -10 7 7 30 20 27 21 31 7 47 -25 30 -30 43 -16 43 7 0 19 -10 27 -22z"/>
 <path d="M2306 558 c-9 -12 -16 -29 -16 -38 0 -26 30 -60 54 -60 36 0 59 24 59 60 0 57 -66 82 -97 38z m76 -13 c15 -33 -3 -75 -32 -75 -11 0 -27 11 -36 25 -15 23 -15 27 0 50 9 14 25 25 36 25 12 0 25 -10 32 -25z"/>
 </g>

</svg>